<mxfile host="app.diagrams.net" agent="Mozilla/5.0 (Windows NT 10.0; Win64; x64) AppleWebKit/537.36 (KHTML, like Gecko) Chrome/131.0.0.0 Safari/537.36" version="24.8.6">
  <diagram name="Page-1" id="OahhyxFnzFiYd8Oz7FEG">
    <mxGraphModel dx="1050" dy="522" grid="1" gridSize="10" guides="1" tooltips="1" connect="1" arrows="1" fold="1" page="1" pageScale="1" pageWidth="850" pageHeight="1100" math="0" shadow="0">
      <root>
        <mxCell id="0" />
        <mxCell id="1" parent="0" />
        <mxCell id="ezoPaS0_Fjhlrc3SgaGH-3" value="" style="edgeStyle=orthogonalEdgeStyle;rounded=0;orthogonalLoop=1;jettySize=auto;html=1;" edge="1" parent="1" source="ezoPaS0_Fjhlrc3SgaGH-1" target="ezoPaS0_Fjhlrc3SgaGH-2">
          <mxGeometry relative="1" as="geometry" />
        </mxCell>
        <mxCell id="ezoPaS0_Fjhlrc3SgaGH-1" value="&lt;font style=&quot;vertical-align: inherit;&quot;&gt;&lt;font style=&quot;vertical-align: inherit;&quot;&gt;Bắt đầu&lt;/font&gt;&lt;/font&gt;" style="ellipse;whiteSpace=wrap;html=1;" vertex="1" parent="1">
          <mxGeometry x="80" width="120" height="80" as="geometry" />
        </mxCell>
        <mxCell id="ezoPaS0_Fjhlrc3SgaGH-36" style="edgeStyle=orthogonalEdgeStyle;rounded=0;orthogonalLoop=1;jettySize=auto;html=1;entryX=0.5;entryY=0;entryDx=0;entryDy=0;" edge="1" parent="1" source="ezoPaS0_Fjhlrc3SgaGH-2" target="ezoPaS0_Fjhlrc3SgaGH-5">
          <mxGeometry relative="1" as="geometry" />
        </mxCell>
        <mxCell id="ezoPaS0_Fjhlrc3SgaGH-2" value="Nhập giá trị n" style="shape=parallelogram;perimeter=parallelogramPerimeter;whiteSpace=wrap;html=1;fixedSize=1;" vertex="1" parent="1">
          <mxGeometry x="80" y="110" width="120" height="60" as="geometry" />
        </mxCell>
        <mxCell id="ezoPaS0_Fjhlrc3SgaGH-7" value="" style="edgeStyle=orthogonalEdgeStyle;rounded=0;orthogonalLoop=1;jettySize=auto;html=1;" edge="1" parent="1" source="ezoPaS0_Fjhlrc3SgaGH-5" target="ezoPaS0_Fjhlrc3SgaGH-6">
          <mxGeometry relative="1" as="geometry">
            <Array as="points">
              <mxPoint x="60" y="250" />
            </Array>
          </mxGeometry>
        </mxCell>
        <mxCell id="ezoPaS0_Fjhlrc3SgaGH-8" value="Đúng" style="edgeLabel;html=1;align=center;verticalAlign=middle;resizable=0;points=[];" vertex="1" connectable="0" parent="ezoPaS0_Fjhlrc3SgaGH-7">
          <mxGeometry x="-0.57" y="-2" relative="1" as="geometry">
            <mxPoint y="-7" as="offset" />
          </mxGeometry>
        </mxCell>
        <mxCell id="ezoPaS0_Fjhlrc3SgaGH-10" value="" style="edgeStyle=orthogonalEdgeStyle;rounded=0;orthogonalLoop=1;jettySize=auto;html=1;" edge="1" parent="1" source="ezoPaS0_Fjhlrc3SgaGH-5" target="ezoPaS0_Fjhlrc3SgaGH-9">
          <mxGeometry relative="1" as="geometry" />
        </mxCell>
        <mxCell id="ezoPaS0_Fjhlrc3SgaGH-13" value="Sai" style="edgeLabel;html=1;align=center;verticalAlign=middle;resizable=0;points=[];" vertex="1" connectable="0" parent="ezoPaS0_Fjhlrc3SgaGH-10">
          <mxGeometry x="0.152" y="2" relative="1" as="geometry">
            <mxPoint x="-5" y="-6" as="offset" />
          </mxGeometry>
        </mxCell>
        <mxCell id="ezoPaS0_Fjhlrc3SgaGH-5" value="n &amp;lt; 4" style="rhombus;whiteSpace=wrap;html=1;" vertex="1" parent="1">
          <mxGeometry x="80" y="220" width="120" height="60" as="geometry" />
        </mxCell>
        <mxCell id="ezoPaS0_Fjhlrc3SgaGH-44" style="edgeStyle=orthogonalEdgeStyle;rounded=0;orthogonalLoop=1;jettySize=auto;html=1;endArrow=none;endFill=0;" edge="1" parent="1" source="ezoPaS0_Fjhlrc3SgaGH-6">
          <mxGeometry relative="1" as="geometry">
            <mxPoint x="460" y="420" as="targetPoint" />
            <Array as="points">
              <mxPoint x="70" y="420" />
              <mxPoint x="461" y="420" />
            </Array>
          </mxGeometry>
        </mxCell>
        <mxCell id="ezoPaS0_Fjhlrc3SgaGH-6" value="Thông báo&amp;nbsp;&lt;div&gt;không đạt&lt;/div&gt;" style="shape=parallelogram;perimeter=parallelogramPerimeter;whiteSpace=wrap;html=1;fixedSize=1;" vertex="1" parent="1">
          <mxGeometry x="10" y="310" width="120" height="60" as="geometry" />
        </mxCell>
        <mxCell id="ezoPaS0_Fjhlrc3SgaGH-14" style="edgeStyle=orthogonalEdgeStyle;rounded=0;orthogonalLoop=1;jettySize=auto;html=1;" edge="1" parent="1" source="ezoPaS0_Fjhlrc3SgaGH-9">
          <mxGeometry relative="1" as="geometry">
            <mxPoint x="310" y="310" as="targetPoint" />
          </mxGeometry>
        </mxCell>
        <mxCell id="ezoPaS0_Fjhlrc3SgaGH-15" value="Đúng" style="edgeLabel;html=1;align=center;verticalAlign=middle;resizable=0;points=[];" vertex="1" connectable="0" parent="ezoPaS0_Fjhlrc3SgaGH-14">
          <mxGeometry x="-0.2265" relative="1" as="geometry">
            <mxPoint x="-17" y="3" as="offset" />
          </mxGeometry>
        </mxCell>
        <mxCell id="ezoPaS0_Fjhlrc3SgaGH-25" style="edgeStyle=orthogonalEdgeStyle;rounded=0;orthogonalLoop=1;jettySize=auto;html=1;entryX=0;entryY=0.5;entryDx=0;entryDy=0;" edge="1" parent="1" source="ezoPaS0_Fjhlrc3SgaGH-9" target="ezoPaS0_Fjhlrc3SgaGH-19">
          <mxGeometry relative="1" as="geometry" />
        </mxCell>
        <mxCell id="ezoPaS0_Fjhlrc3SgaGH-26" value="Sai" style="edgeLabel;html=1;align=center;verticalAlign=middle;resizable=0;points=[];" vertex="1" connectable="0" parent="ezoPaS0_Fjhlrc3SgaGH-25">
          <mxGeometry x="0.392" y="-1" relative="1" as="geometry">
            <mxPoint x="-6" y="-11" as="offset" />
          </mxGeometry>
        </mxCell>
        <mxCell id="ezoPaS0_Fjhlrc3SgaGH-9" value="4 &amp;lt;= n &amp;lt;= 6" style="rhombus;whiteSpace=wrap;html=1;" vertex="1" parent="1">
          <mxGeometry x="250" y="220" width="120" height="60" as="geometry" />
        </mxCell>
        <mxCell id="ezoPaS0_Fjhlrc3SgaGH-47" style="edgeStyle=orthogonalEdgeStyle;rounded=0;orthogonalLoop=1;jettySize=auto;html=1;endArrow=none;endFill=0;" edge="1" parent="1" source="ezoPaS0_Fjhlrc3SgaGH-16">
          <mxGeometry relative="1" as="geometry">
            <mxPoint x="480" y="420" as="targetPoint" />
            <Array as="points">
              <mxPoint x="310" y="420" />
              <mxPoint x="461" y="420" />
            </Array>
          </mxGeometry>
        </mxCell>
        <mxCell id="ezoPaS0_Fjhlrc3SgaGH-16" value="Thông báo trung&amp;nbsp;&lt;div&gt;bình&lt;/div&gt;" style="shape=parallelogram;perimeter=parallelogramPerimeter;whiteSpace=wrap;html=1;fixedSize=1;" vertex="1" parent="1">
          <mxGeometry x="250" y="310" width="120" height="60" as="geometry" />
        </mxCell>
        <mxCell id="ezoPaS0_Fjhlrc3SgaGH-28" value="" style="edgeStyle=orthogonalEdgeStyle;rounded=0;orthogonalLoop=1;jettySize=auto;html=1;" edge="1" parent="1" source="ezoPaS0_Fjhlrc3SgaGH-19" target="ezoPaS0_Fjhlrc3SgaGH-27">
          <mxGeometry relative="1" as="geometry" />
        </mxCell>
        <mxCell id="ezoPaS0_Fjhlrc3SgaGH-29" value="Đúng" style="edgeLabel;html=1;align=center;verticalAlign=middle;resizable=0;points=[];" vertex="1" connectable="0" parent="ezoPaS0_Fjhlrc3SgaGH-28">
          <mxGeometry x="0.312" y="-1" relative="1" as="geometry">
            <mxPoint x="-16" as="offset" />
          </mxGeometry>
        </mxCell>
        <mxCell id="ezoPaS0_Fjhlrc3SgaGH-30" style="edgeStyle=orthogonalEdgeStyle;rounded=0;orthogonalLoop=1;jettySize=auto;html=1;entryX=0;entryY=0.5;entryDx=0;entryDy=0;" edge="1" parent="1" source="ezoPaS0_Fjhlrc3SgaGH-19" target="ezoPaS0_Fjhlrc3SgaGH-20">
          <mxGeometry relative="1" as="geometry" />
        </mxCell>
        <mxCell id="ezoPaS0_Fjhlrc3SgaGH-31" value="Sai" style="edgeLabel;html=1;align=center;verticalAlign=middle;resizable=0;points=[];" vertex="1" connectable="0" parent="ezoPaS0_Fjhlrc3SgaGH-30">
          <mxGeometry x="0.01" relative="1" as="geometry">
            <mxPoint x="-3" y="-7" as="offset" />
          </mxGeometry>
        </mxCell>
        <mxCell id="ezoPaS0_Fjhlrc3SgaGH-19" value="6 &amp;lt; n &amp;lt;= 8" style="rhombus;whiteSpace=wrap;html=1;" vertex="1" parent="1">
          <mxGeometry x="420" y="220" width="120" height="60" as="geometry" />
        </mxCell>
        <mxCell id="ezoPaS0_Fjhlrc3SgaGH-32" style="edgeStyle=orthogonalEdgeStyle;rounded=0;orthogonalLoop=1;jettySize=auto;html=1;" edge="1" parent="1" source="ezoPaS0_Fjhlrc3SgaGH-20">
          <mxGeometry relative="1" as="geometry">
            <mxPoint x="640" y="310" as="targetPoint" />
          </mxGeometry>
        </mxCell>
        <mxCell id="ezoPaS0_Fjhlrc3SgaGH-35" value="Đúng" style="edgeLabel;html=1;align=center;verticalAlign=middle;resizable=0;points=[];" vertex="1" connectable="0" parent="ezoPaS0_Fjhlrc3SgaGH-32">
          <mxGeometry x="-0.0955" y="-1" relative="1" as="geometry">
            <mxPoint x="-17" y="2" as="offset" />
          </mxGeometry>
        </mxCell>
        <mxCell id="ezoPaS0_Fjhlrc3SgaGH-39" value="" style="edgeStyle=orthogonalEdgeStyle;rounded=0;orthogonalLoop=1;jettySize=auto;html=1;" edge="1" parent="1" source="ezoPaS0_Fjhlrc3SgaGH-20" target="ezoPaS0_Fjhlrc3SgaGH-37">
          <mxGeometry relative="1" as="geometry" />
        </mxCell>
        <mxCell id="ezoPaS0_Fjhlrc3SgaGH-40" value="Sai" style="edgeLabel;html=1;align=center;verticalAlign=middle;resizable=0;points=[];" vertex="1" connectable="0" parent="ezoPaS0_Fjhlrc3SgaGH-39">
          <mxGeometry x="0.06" y="-5" relative="1" as="geometry">
            <mxPoint x="-3" y="-13" as="offset" />
          </mxGeometry>
        </mxCell>
        <mxCell id="ezoPaS0_Fjhlrc3SgaGH-20" value="8 &amp;lt; n &amp;lt;= 9" style="rhombus;whiteSpace=wrap;html=1;" vertex="1" parent="1">
          <mxGeometry x="580" y="220" width="120" height="60" as="geometry" />
        </mxCell>
        <mxCell id="ezoPaS0_Fjhlrc3SgaGH-49" style="edgeStyle=orthogonalEdgeStyle;rounded=0;orthogonalLoop=1;jettySize=auto;html=1;" edge="1" parent="1" source="ezoPaS0_Fjhlrc3SgaGH-27">
          <mxGeometry relative="1" as="geometry">
            <mxPoint x="480" y="490" as="targetPoint" />
          </mxGeometry>
        </mxCell>
        <mxCell id="ezoPaS0_Fjhlrc3SgaGH-27" value="Thông báo&amp;nbsp;&lt;div&gt;khá&amp;nbsp;&lt;/div&gt;" style="shape=parallelogram;perimeter=parallelogramPerimeter;whiteSpace=wrap;html=1;fixedSize=1;" vertex="1" parent="1">
          <mxGeometry x="420" y="310" width="120" height="60" as="geometry" />
        </mxCell>
        <mxCell id="ezoPaS0_Fjhlrc3SgaGH-50" style="edgeStyle=orthogonalEdgeStyle;rounded=0;orthogonalLoop=1;jettySize=auto;html=1;endArrow=none;endFill=0;" edge="1" parent="1" source="ezoPaS0_Fjhlrc3SgaGH-33">
          <mxGeometry relative="1" as="geometry">
            <mxPoint x="480" y="420" as="targetPoint" />
            <Array as="points">
              <mxPoint x="640" y="420" />
              <mxPoint x="481" y="420" />
            </Array>
          </mxGeometry>
        </mxCell>
        <mxCell id="ezoPaS0_Fjhlrc3SgaGH-33" value="Thông báo giỏi" style="shape=parallelogram;perimeter=parallelogramPerimeter;whiteSpace=wrap;html=1;fixedSize=1;" vertex="1" parent="1">
          <mxGeometry x="580" y="310" width="120" height="60" as="geometry" />
        </mxCell>
        <mxCell id="ezoPaS0_Fjhlrc3SgaGH-42" value="" style="edgeStyle=orthogonalEdgeStyle;rounded=0;orthogonalLoop=1;jettySize=auto;html=1;" edge="1" parent="1" source="ezoPaS0_Fjhlrc3SgaGH-37" target="ezoPaS0_Fjhlrc3SgaGH-41">
          <mxGeometry relative="1" as="geometry" />
        </mxCell>
        <mxCell id="ezoPaS0_Fjhlrc3SgaGH-43" value="Đúng" style="edgeLabel;html=1;align=center;verticalAlign=middle;resizable=0;points=[];" vertex="1" connectable="0" parent="ezoPaS0_Fjhlrc3SgaGH-42">
          <mxGeometry x="-0.648" relative="1" as="geometry">
            <mxPoint x="-19" as="offset" />
          </mxGeometry>
        </mxCell>
        <mxCell id="ezoPaS0_Fjhlrc3SgaGH-37" value="9 &amp;lt; n &amp;lt;= 10" style="rhombus;whiteSpace=wrap;html=1;" vertex="1" parent="1">
          <mxGeometry x="740" y="220" width="120" height="60" as="geometry" />
        </mxCell>
        <mxCell id="ezoPaS0_Fjhlrc3SgaGH-51" style="edgeStyle=orthogonalEdgeStyle;rounded=0;orthogonalLoop=1;jettySize=auto;html=1;" edge="1" parent="1" source="ezoPaS0_Fjhlrc3SgaGH-41">
          <mxGeometry relative="1" as="geometry">
            <mxPoint x="480" y="490" as="targetPoint" />
            <Array as="points">
              <mxPoint x="800" y="420" />
              <mxPoint x="481" y="420" />
            </Array>
          </mxGeometry>
        </mxCell>
        <mxCell id="ezoPaS0_Fjhlrc3SgaGH-41" value="Thông báo sản&amp;nbsp;&lt;div&gt;phẩm xuất&lt;/div&gt;&lt;div&gt;sắc&lt;/div&gt;" style="shape=parallelogram;perimeter=parallelogramPerimeter;whiteSpace=wrap;html=1;fixedSize=1;" vertex="1" parent="1">
          <mxGeometry x="740" y="310" width="120" height="60" as="geometry" />
        </mxCell>
        <mxCell id="ezoPaS0_Fjhlrc3SgaGH-52" value="Kết thúc" style="ellipse;whiteSpace=wrap;html=1;" vertex="1" parent="1">
          <mxGeometry x="420" y="490" width="120" height="80" as="geometry" />
        </mxCell>
      </root>
    </mxGraphModel>
  </diagram>
</mxfile>
